<?xml version="1.0" encoding="utf-8"?>
<!-- Generator: Adobe Illustrator 26.0.0, SVG Export Plug-In . SVG Version: 6.00 Build 0)  -->
<svg version="1.1" id="Capa_1" xmlns:svgjs="http://svgjs.com/svgjs"
	 xmlns="http://www.w3.org/2000/svg" xmlns:xlink="http://www.w3.org/1999/xlink" x="0px" y="0px" viewBox="0 0 512 512"
	 style="enable-background:new 0 0 512 512;" xml:space="preserve">
<style type="text/css">
	.st0{fill:#8FCAEF;stroke:#473049;stroke-width:7;stroke-miterlimit:10;}
	.st1{fill:#B2B2B2;}
	.st2{fill:#606872;}
	.st3{fill:#473049;}
	.st4{clip-path:url(#SVGID_00000002384396166079251300000006879987615924134051_);}
	.st5{fill:#4666B7;}
	.st6{fill:#4B3956;}
	.st7{fill:#5981D1;}
	.st8{fill:none;stroke:#473049;stroke-width:7;stroke-miterlimit:10;}
	.st9{fill:#DDDDDD;}
</style>
<path class="st0" d="M263.7,28.4l71.5,144.8c1.2,2.5,3.6,4.2,6.4,4.6L501.3,201c6.9,1,9.7,9.5,4.7,14.4L390.3,328.1
	c-2,1.9-2.9,4.7-2.4,7.5l27.3,159.1c1.2,6.9-6.1,12.2-12.3,8.9L260,428.5c-2.5-1.3-5.4-1.3-7.9,0l-142.9,75.1
	c-6.2,3.3-13.5-2-12.3-8.9l27.3-159.1c0.5-2.7-0.4-5.5-2.4-7.5L6.2,215.5c-5-4.9-2.2-13.4,4.7-14.4l159.8-23.2
	c2.8-0.4,5.1-2.1,6.4-4.6l71.5-144.8C251.6,22.1,260.6,22.1,263.7,28.4z"/>
<g>
	<g>
		<path class="st1" d="M292.7,350.8c-5.8,10.3-23.3,18.4-36.6,18.4H256c-13.4,0-30.8-8-36.6-18.3l0,0c1.4-2.8,2.4-5.7,3-8.8
			c0.6-2.8,1-5.7,1.1-8.6c1.2,0.5,63.9,0.5,65.2,0c0.1,2.7,0.4,5.4,1,8.1C290.2,344.8,291.2,347.9,292.7,350.8L292.7,350.8z"/>
		<g>
			<path class="st2" d="M289.5,341.6c-10.1,6.6-21.9,10-34,9.8c-11.7,0.2-23.3-3-33.2-9.3c0.6-2.8,1-5.7,1.1-8.6
				c1.2,0.5,63.9,0.5,65.2,0C288.7,336.2,289,338.9,289.5,341.6L289.5,341.6z"/>
		</g>
		<path class="st3" d="M256,372.7c-13.6,0-32.6-7.9-39.5-19.7l-1.5-1.5l1.1-2.3c1.3-2.5,2.2-5.2,2.7-7.9c0.6-2.7,0.9-5.3,1-8
			l0.2-5.1l4.3,1.8c5.6,0.4,57.8,0.4,63.3,0l4.2-1.8l0.2,5.1c0.1,2.5,0.4,5,0.9,7.5c0.6,2.9,1.5,5.8,2.8,8.4l0.8,1.6l-0.9,1.6
			C288.9,364.6,269.7,372.7,256,372.7z M223.3,350.6c5.7,8.1,20.6,15.1,32.7,15.1c12.1,0,27-7.1,32.8-15.2c-1.1-2.7-2-5.5-2.6-8.3
			c-0.3-1.7-0.6-3.4-0.8-5.1c-4.2,0.1-12.5,0.2-29.3,0.2s-25.1-0.1-29.3-0.2c-0.2,1.9-0.5,3.8-0.9,5.7
			C225.2,345.5,224.4,348.1,223.3,350.6z M288,330L288,330L288,330z"/>
	</g>
	<g>
		<path class="st1" d="M160.9,261.1c-14.1,5.8-30.5-6.1-35.1-22.6s-0.6-33.8,10.8-39.1c5.2-2.5,10.9-3.7,16.6-3.5
			C162.8,216.2,165.5,239.1,160.9,261.1z"/>
		<path class="st3" d="M153.4,266.1c-3.9,0-7.8-0.9-11.6-2.8c-9-4.4-16.4-13.5-19.3-23.9c-5.3-19.1,0-37.3,12.7-43.2
			c5.6-2.7,11.9-4,18.2-3.8l2.2,0.1l0.9,2c9.8,20.9,12.5,44.8,7.9,67.4l-0.4,1.8l-1.7,0.7C159.4,265.5,156.4,266.1,153.4,266.1z
			 M151.1,199.4c-4.5,0.2-8.9,1.3-12.9,3.2c-9.5,4.4-13.3,19.5-9,35c2.4,8.5,8.3,15.9,15.6,19.4c3.2,1.6,7.9,3,13.1,1.5
			C161.6,238.7,159.2,217.9,151.1,199.4z"/>
	</g>
	<g>
		<path class="st1" d="M358.7,195.8c5.8-1.5,11.9-0.1,16.6,3.6c11.5,5.4,15.5,22.6,10.8,39.2c-4.6,16.5-21,28.4-35.1,22.6
			C340.3,245,348.7,203.8,358.7,195.8L358.7,195.8z"/>
		<path class="st3" d="M358.6,266.1c-3.1,0-6.1-0.6-8.9-1.8l-1-0.4l-0.6-0.9c-11.8-17.8-2.9-61,8.3-70l0.6-0.5l0.7-0.2
			c6.7-1.7,13.9-0.2,19.3,4c12.5,6.1,17.7,24.2,12.4,43.1c-2.9,10.3-10.3,19.5-19.3,23.8C366.4,265.2,362.5,266.1,358.6,266.1z
			 M353.4,258.3c5.4,1.8,10.4,0.4,13.8-1.2c7.2-3.5,13.2-11,15.6-19.4c4.4-15.6,0.6-30.6-8.9-35l-0.4-0.2l-0.3-0.3
			c-3.6-2.8-8.3-4-12.8-3.1C352.6,206.6,344.4,242.9,353.4,258.3z"/>
	</g>
	<g>
		<defs>
			<path id="SVGID_1_" d="M263.7,28.4l71.5,144.8c1.2,2.5,3.6,4.2,6.4,4.6L501.3,201c6.9,1,9.7,9.5,4.7,14.4L390.3,328.1
				c-2,1.9-2.9,4.7-2.4,7.5l27.3,159.1c1.2,6.9-6.1,12.2-12.3,8.9L260,428.5c-2.5-1.3-5.4-1.3-7.9,0l-142.9,75.1
				c-6.2,3.3-13.5-2-12.3-8.9l27.3-159.1c0.5-2.7-0.4-5.5-2.4-7.5L6.2,215.5c-5-4.9-2.2-13.4,4.7-14.4l159.8-23.2
				c2.8-0.4,5.1-2.1,6.4-4.6l71.5-144.8C251.6,22.1,260.6,22.1,263.7,28.4z"/>
		</defs>
		<clipPath id="SVGID_00000141456564819223070410000009357845589667421337_">
			<use xlink:href="#SVGID_1_"  style="overflow:visible;"/>
		</clipPath>
		<g style="clip-path:url(#SVGID_00000141456564819223070410000009357845589667421337_);">
			<path class="st5" d="M404.7,441c-8.8-14-33.9-44-78.5-64.8c-7.5-3.2-14.8-7.1-21.6-11.6c-5.1-3.5-9.2-8.2-12-13.7
				c-5.8,10.3-23.3,15.7-36.6,15.7h-0.1c-13.4,0-30.8-5.3-36.6-15.6l0,0c-2.8,5.5-7,10.2-12.1,13.7c-6.8,4.5-14,8.4-21.5,11.6
				c-17.3,8-33.4,18.4-47.9,30.7c-11.8,9.8-22.1,21.3-30.6,34.1c-4.4,7.1-5.2,12.8-3.4,17.6c2.4,6.3-27.1,57.4-18.9,61.9
				c13.4,7.4,87.4-24.3,147.5-21.1c7.4,0.4,15.2,0.6,23.4,0.6l0,0c8.1,0,15.9-0.2,23.4-0.6c60.1-3.2,123.7,14.3,137.1,6.9
				C431.2,498.2,414.9,457.3,404.7,441z"/>
			<path class="st3" d="M256,503.5c-8.2,0-16.1-0.2-23.6-0.6c-54.1-2.8-116,14.9-134.2,4.9c-7.6-4.2,5.4-40.1,2.5-48
				c-2.3-6.2-1.1-13.1,3.7-20.7c8.7-13.1,19.2-24.9,31.3-34.9c14.7-12.5,31.1-23,48.6-31.2l0.1-0.1c7.3-3.1,14.3-6.9,20.9-11.2
				c4.6-3.1,8.4-7.4,10.9-12.4l2.2-4.3l3.8,3.8l0.3,0.5c4.8,8.7,20.9,13.8,33.5,13.8c12.8,0,28.8-5.2,33.7-13.9l3.2-5.7l3,5.8
				c2.5,5,6.3,9.3,10.9,12.4c6.6,4.4,13.6,8.2,20.9,11.3l0.1,0.1c51.7,24.1,75.7,59.3,80,66.1l0,0c4.3,6.9,5.7,13.1,4.2,18.9
				c-2.3,8.8,20,54.5,11.7,59.1c-18.2,10-89.9-17-144-14.2C272.1,503.3,264.2,503.5,256,503.5z M187.2,379.4
				c-17,7.9-32.8,18.1-47,30.2c-11.6,9.6-21.6,20.8-29.9,33.4c-3.5,5.6-4.5,10.4-3,14.4c2.2,5.8-11.6,42.3-5.4,45.7
				c3.9,2.1,61.3-10.8,131-7.1c7.4,0.4,15.2,0.6,23.2,0.6c8.1,0,15.9-0.2,23.2-0.6c69.8-3.7,129.9,8.1,133.8,5.9
				c9.9-5.5-5.8-40.3-4.5-45.3c1-3.8-3.5-8.4-6.8-13.6l0,0c-4.1-6.5-27.1-40.2-76.9-63.5c-7.7-3.2-15.1-7.2-22.1-11.9
				c-4.1-2.8-7.6-6.3-10.4-10.4c-8.2,8.5-23.5,13-36.3,13c-12.9,0-28.2-4.4-36.4-12.9c-2.8,4.1-6.4,7.6-10.5,10.4
				C202.2,372.1,194.8,376.1,187.2,379.4z"/>
		</g>
		<g style="clip-path:url(#SVGID_00000141456564819223070410000009357845589667421337_);">
			<path class="st6" d="M256,403.7c2.9-0.1,5.8-1,8.2-2.6c8.3,24.9,15.2,76.1,15.2,98.3c-7.4,0.4-15.2,0.6-23.4,0.6l0,0
				c-8.2,0-16-0.2-23.4-0.6l0,0c0-22.2,6.8-73.4,15.2-98.3C250.1,402.7,253,403.7,256,403.7L256,403.7z"/>
			<path class="st3" d="M256,503.5c-8.2,0-16.2-0.2-23.6-0.6l-3.3-0.2v-3.3c0-23.6,7.2-75.1,15.3-99.4l1.5-4.4l3.8,2.6
				c1.8,1.3,4,2,6.3,2c2.2-0.1,4.4-0.8,6.3-2l3.8-2.6l1.5,4.4c8.1,24.4,15.3,75.9,15.3,99.4v3.3l-3.3,0.2
				C272.1,503.3,264.2,503.5,256,503.5z M236.1,496.1c6.4,0.3,13,0.4,19.9,0.4c6.8,0,13.5-0.1,19.9-0.4c-0.6-22.9-6.7-66.1-13.7-90
				c-1.9,0.7-4,1.1-6,1.1H256c-2.1,0-4.2-0.4-6.1-1.1C242.8,429.9,236.7,473.1,236.1,496.1z"/>
		</g>
		<g style="clip-path:url(#SVGID_00000141456564819223070410000009357845589667421337_);">
			<path class="st6" d="M264.2,401.1c-2.4,1.7-5.3,2.6-8.2,2.6h-0.1c-2.9-0.1-5.8-1-8.2-2.6c-4.3-3.1-7.9-7.1-10.3-11.9
				c6.3-6.7,13.1-14.3,18.5-14.3h0.1c5.4,0,12.2,7.6,18.5,14.3C272.1,393.9,268.5,398,264.2,401.1L264.2,401.1z"/>
			<path class="st3" d="M256,407.2h-0.1c-3.7-0.1-7.2-1.2-10.2-3.3c-4.8-3.4-8.8-7.9-11.4-13.2l-1.1-2.2l2.6-2.8
				c6.9-7.4,13.4-14.4,20.1-14.4c6.6,0,13.1,6.9,20,14.3l2.8,3l-1.1,2.2c-2.7,5.2-6.6,9.8-11.4,13.1l0,0
				C263.2,406,259.7,407.1,256,407.2L256,407.2z M241.8,389.7c2.1,3.3,4.8,6.2,8,8.5c1.8,1.3,4,2,6.3,2c2.2,0,4.4-0.7,6.2-2
				c3.2-2.3,5.9-5.2,8-8.5c-4.7-5-10.8-11.3-14.2-11.3C252.5,378.4,246.5,384.7,241.8,389.7z"/>
		</g>
		<g style="clip-path:url(#SVGID_00000141456564819223070410000009357845589667421337_);">
			<path class="st7" d="M360,454.6v14.6c0,1.9-1.3,3.5-3.1,4l-29.9,7.7c-0.7,0.2-1.3,0.2-2,0l-29.9-7.7c-1.8-0.4-3.1-2.1-3.1-4
				v-14.6c0-2.3,1.8-4.1,4.1-4.1h59.8C358.2,450.5,360,452.3,360,454.6z"/>
		</g>
		<g style="clip-path:url(#SVGID_00000141456564819223070410000009357845589667421337_);">
			<path class="st7" d="M256,366.6c13.4,0,30.9-5.4,36.6-15.7c2.8,5.5,6.9,10.2,12,13.7l0,0c0.6,10.9-6,24.6-9.4,30.2
				c-1.6,2.9-4.7,4.6-8,4.4c-3.4-0.3-8-4.9-12.8-10c-6.3-6.7-13.1-14.3-18.5-14.3h-0.1c-5.4,0-12.2,7.6-18.5,14.3
				c-4.8,5.1-9.4,9.7-12.8,10c-3.3,0.2-6.4-1.5-8-4.4c-3.4-5.6-10-19.2-9.4-30.1l0,0c5.1-3.5,9.3-8.2,12.1-13.7l0,0
				C225.1,361.2,242.5,366.6,256,366.6L256,366.6z"/>
			<path class="st3" d="M287.8,402.7c-0.2,0-0.5,0-0.7,0c-4.8-0.4-9.5-5-15.1-11.1l-1.1-1.2c-4.8-5.1-11.3-12-14.8-12
				c-3.7,0-10.3,7-15,12.2l-1,1c-5.9,6.3-10.5,10.7-15.1,11.1c-4.7,0.3-9.1-2.1-11.4-6.2c-1.2-2-9.9-17.1-9.9-30.5l-1.9-1.9l3.5-2.4
				c4.6-3.1,8.4-7.4,10.9-12.4l2.2-4.3l3.7,3.8l0.3,0.5c4.8,8.7,20.9,13.8,33.5,13.8h0.1c12.7,0,28.7-5.2,33.6-13.9l3.2-5.7l3,5.8
				c2.5,5,6.3,9.3,10.9,12.4l3.5,2.4l-1.9,1.9c0,13.4-8.7,28.5-9.9,30.5C296.2,400.3,292.1,402.7,287.8,402.7z M255.9,371.4
				c6.6,0,13.1,6.9,20,14.3l1.1,1.2c2.4,2.6,8.2,8.7,10.5,8.9c1.9,0.1,3.7-0.9,4.6-2.6l0.1-0.1c3.4-5.6,8.8-17.2,8.9-26.6
				c-3.4-2.6-6.4-5.7-8.9-9.3c-8.2,8.5-23.5,13-36.3,13h-0.1c-12.8,0-28.2-4.4-36.3-12.9c-2.5,3.5-5.5,6.7-8.9,9.3
				c0.1,9.4,5.5,20.9,8.9,26.6l0.1,0.1c0.9,1.7,2.8,2.7,4.8,2.6c2.2-0.2,7.6-5.9,10.5-8.9l0.9-1
				C242.7,378.4,249.3,371.4,255.9,371.4z"/>
		</g>
		<g style="clip-path:url(#SVGID_00000141456564819223070410000009357845589667421337_);">
			<g>
				<path class="st3" d="M355.9,446.5h-59.8c-4.5,0-8.1,3.6-8.1,8.1v14.6c0,3.7,2.5,6.9,6.1,7.8l29.9,7.7c0.6,0.2,1.3,0.2,2,0.2
					s1.3-0.1,2-0.2l29.9-7.7c3.6-0.9,6.1-4.1,6.1-7.8v-14.6C364,450.1,360.4,446.5,355.9,446.5z M356,469.2L356,469.2l-29.9,7.7
					l-30-7.8l0.1-14.7l59.8,0.1V469.2z"/>
			</g>
		</g>
	</g>
	<path class="st8" d="M265.1,28.4l71.5,144.8c1.2,2.5,3.6,4.2,6.4,4.6L502.7,201c6.9,1,9.7,9.5,4.7,14.4L391.7,328.1
		c-2,1.9-2.9,4.7-2.4,7.5l27.3,159.1c1.2,6.9-6.1,12.2-12.3,8.9l-142.9-75.1c-2.5-1.3-5.4-1.3-7.9,0l-142.9,75.1
		c-6.2,3.3-13.5-2-12.3-8.9l27.3-159.1c0.5-2.7-0.4-5.5-2.4-7.5L7.6,215.5c-5-4.9-2.2-13.4,4.7-14.4l159.8-23.2
		c2.8-0.4,5.1-2.1,6.4-4.6l71.5-144.8C253,22.1,262,22.1,265.1,28.4z"/>
	<g>
		<path class="st9" d="M358.6,179.8c0-58.5-46-105.9-102.7-105.9s-102.7,47.4-102.7,105.9c0,5.5,0.2,10.6,0.6,15.6
			c-0.2,0.2-0.3,0.3-0.5,0.5c0.4,13.2,1.2,25.9,2.4,36.7c0.8,7.7,4.4,25.6,5.2,28.6c8.9,32.3,31.9,58.8,62.5,72.4
			c1.2,0.5,2.4,1,3.7,1.5c9.2,3.7,19,5.8,28.9,6.1c9.9-0.3,19.7-2.4,28.9-6.1c1.2-0.5,2.4-1,3.7-1.5c30.6-13.5,53.5-40.1,62.5-72.4
			c0.8-2.9,4.4-20.8,5.2-28.6c1.2-10.8,2-23.6,2.4-36.8c-0.2-0.2-0.4-0.4-0.6-0.6C358.5,190.3,358.6,185.2,358.6,179.8z"/>
		<path class="st3" d="M256,344.6h-0.1c-10.4-0.3-20.5-2.5-30.1-6.4c-1.2-0.5-2.4-1-3.7-1.5c-31.8-14-55.2-41.2-64.5-74.7
			c-0.9-3.3-4.5-21.5-5.3-29.1c-1.2-11.5-2-38.8-2-38.8c-0.3-4.6-0.5-9.4-0.5-14.3c0-60.3,47.6-109.4,106.2-109.4
			s106.2,49.1,106.2,109.4c0,4.9-0.2,9.6-0.5,14.2c0,0-0.7,27.8-1.9,39c-0.9,7.8-4.4,25.9-5.4,29.2c-9.2,33.4-32.7,60.6-64.4,74.6
			c-1.3,0.6-2.6,1.1-3.8,1.5c-9.5,3.9-19.7,6-30,6.4L256,344.6z M156.9,197.3c0.4,12,1.2,24.1,2.3,34.9c0.8,7.6,4.3,25.3,5.1,28
			c8.7,31.4,30.8,57,60.5,70.1c1.1,0.5,2.3,0.9,3.5,1.4c8.9,3.6,18.1,5.6,27.6,5.9c9.5-0.3,18.8-2.3,27.6-5.9c1.3-0.5,2.4-1,3.6-1.5
			c29.7-13.1,51.8-38.7,60.5-70.1c0.8-2.7,4.3-20.3,5.1-28c1.1-10.5,1.9-22.6,2.3-35.1c0,0,0-12.1,0-17.3
			c0-56.4-44.5-102.4-99.2-102.4s-99.2,45.9-99.2,102.4C156.7,185,156.9,197.3,156.9,197.3z"/>
	</g>
</g>
</svg>
