<svg xmlns="http://www.w3.org/2000/svg" version="1.1" xmlns:xlink="http://www.w3.org/1999/xlink" xmlns:svgjs="http://svgjs.com/svgjs" width="512" height="512" x="0" y="0" viewBox="0 0 128 128" style="enable-background:new 0 0 512 512" xml:space="preserve" class=""><g><path xmlns="http://www.w3.org/2000/svg" d="m26.333 68.327h76.333v42.259h-76.333z" fill="#d9d9d9" data-original="#d9dbd5" class=""></path><path xmlns="http://www.w3.org/2000/svg" d="m26.333 57.746h76.333v45.84h-76.333z" fill="#c9c9c9" data-original="#caccc6" class=""></path><rect xmlns="http://www.w3.org/2000/svg" fill="#e7e7e7" height="8.931" rx="2" width="97.314" x="15.343" y="110.569" data-original="#e7eadf" class=""></rect><path xmlns="http://www.w3.org/2000/svg" d="m92.601 102.89h12.818l-1.046-40.882h-10.725z" fill="#d9d9d9" data-original="#d9dbd5" class=""></path><path xmlns="http://www.w3.org/2000/svg" d="m21.321 52.24 40.972-26.555a3.137 3.137 0 0 1 3.414 0l40.972 26.555a1.047 1.047 0 0 1 -.569 1.925h-84.22a1.047 1.047 0 0 1 -.569-1.925z" fill="#e7e7e7" data-original="#e7eadf" class=""></path><path xmlns="http://www.w3.org/2000/svg" d="m62.25 34.039-16.3 11.71a1 1 0 0 0 .583 1.812h34.939a1 1 0 0 0 .583-1.812l-16.305-11.71a3 3 0 0 0 -3.5 0z" fill="#0d6efd" data-original="#4a67ce" class=""></path><path xmlns="http://www.w3.org/2000/svg" d="m77.865 69.8h10.725a0 0 0 0 1 0 0v19.729a5.125 5.125 0 0 1 -5.125 5.125h-.475a5.125 5.125 0 0 1 -5.125-5.125v-19.729a0 0 0 0 1 0 0z" fill="#8d8d8d" transform="matrix(-1 0 0 -1 166.455 164.45)" data-original="#b2b2b2" class=""></path><path xmlns="http://www.w3.org/2000/svg" d="m44.535 69.8h.475a5.125 5.125 0 0 1 5.125 5.125v19.729a0 0 0 0 1 0 0h-10.725a0 0 0 0 1 0 0v-19.732a5.125 5.125 0 0 1 5.125-5.122z" fill="#8d8d8d" data-original="#b2b2b2" class=""></path><path xmlns="http://www.w3.org/2000/svg" d="m63.635 68.489h.9a9.75 9.75 0 0 1 9.75 9.75v25.348a0 0 0 0 1 0 0h-20.4a0 0 0 0 1 0 0v-25.348a9.75 9.75 0 0 1 9.75-9.75z" fill="#8d8d8d" data-original="#b2b2b2" class=""></path><path xmlns="http://www.w3.org/2000/svg" d="m23.437 54.165h80.896v7.162h-80.896z" fill="#d9d9d9" data-original="#d9dbd5" class=""></path><rect xmlns="http://www.w3.org/2000/svg" fill="#e7e7e7" height="9.679" rx="2" transform="matrix(-1 0 0 -1 198.021 118.009)" width="17.527" x="90.247" y="54.165" data-original="#e7eadf" class=""></rect><path xmlns="http://www.w3.org/2000/svg" d="m75.433 10.182a6.644 6.644 0 0 0 -4.682.646c-3.451 1.545-6.751-2.328-6.751-2.328v6.95s3.3 3.873 6.751 2.328a7.13 7.13 0 0 1 4.34-.734.672.672 0 0 0 .8-.664v-5.556a.667.667 0 0 0 -.458-.642z" fill="#0d6efd" data-original="#ff4a64" class=""></path><rect xmlns="http://www.w3.org/2000/svg" fill="#e7e7e7" height="9.679" rx="2" transform="matrix(-1 0 0 -1 198.021 211.459)" width="17.527" x="90.247" y="100.89" data-original="#e7eadf" class=""></rect><path xmlns="http://www.w3.org/2000/svg" d="m35.573 102.89h-12.818l1.046-40.882h10.726z" fill="#d9d9d9" data-original="#d9dbd5" class=""></path><rect xmlns="http://www.w3.org/2000/svg" fill="#e7e7e7" height="9.679" rx="2" width="17.527" x="20.401" y="54.165" data-original="#e7eadf" class=""></rect><rect xmlns="http://www.w3.org/2000/svg" fill="#e7e7e7" height="9.679" rx="2" width="17.527" x="20.401" y="100.89" data-original="#e7eadf" class=""></rect><g xmlns="http://www.w3.org/2000/svg" fill="#463049"><path d="m81.472 48.561h-34.944a2 2 0 0 1 -1.166-3.624l16.305-11.71a4 4 0 0 1 4.666 0l16.306 11.71a2 2 0 0 1 -1.167 3.624zm-18.639-13.709-16.3 11.71h34.939l-16.3-11.709a2 2 0 0 0 -2.334 0z" fill="#463049" data-original="#463049" class=""></path><path d="m74.29 104.586h-20.405a1 1 0 0 1 -1-1v-25.348a10.762 10.762 0 0 1 10.75-10.75h.905a10.763 10.763 0 0 1 10.75 10.75v25.348a1 1 0 0 1 -1 1zm-19.405-2h18.405v-24.348a8.76 8.76 0 0 0 -8.75-8.75h-.905a8.76 8.76 0 0 0 -8.75 8.75z" fill="#463049" data-original="#463049" class=""></path><path d="m50.135 95.653h-10.725a1 1 0 0 1 -1-1v-19.731a6.132 6.132 0 0 1 6.125-6.122h.475a6.132 6.132 0 0 1 6.125 6.125v19.728a1 1 0 0 1 -1 1zm-9.725-2h8.725v-18.731a4.129 4.129 0 0 0 -4.125-4.122h-.475a4.13 4.13 0 0 0 -4.125 4.125z" fill="#463049" data-original="#463049" class=""></path><path d="m69.048 19.148c-3.166 0-5.682-2.9-5.809-3.049a1 1 0 0 1 1.521-1.3c.028.032 2.867 3.285 5.583 2.065a8.536 8.536 0 0 1 4.551-.864v-4.926a6.215 6.215 0 0 0 -3.734.667c-4.085 1.83-7.766-2.411-7.921-2.593a1 1 0 1 1 1.522-1.3c.027.031 2.866 3.283 5.582 2.063a7.6 7.6 0 0 1 5.389-.687 1.658 1.658 0 0 1 1.162 1.6v5.556a1.677 1.677 0 0 1 -.619 1.3 1.655 1.655 0 0 1 -1.386.339 6.217 6.217 0 0 0 -3.729.667 5.093 5.093 0 0 1 -2.112.462z" fill="#463049" data-original="#463049" class=""></path><path d="m64 26.184a1 1 0 0 1 -1-1v-16.684a1 1 0 0 1 2 0v16.684a1 1 0 0 1 -1 1z" fill="#463049" data-original="#463049" class=""></path><path d="m44.772 95.653a1 1 0 0 1 -1-1v-24.853a1 1 0 0 1 2 0v24.853a1 1 0 0 1 -1 1z" fill="#463049" data-original="#463049" class=""></path><path d="m50.135 83.226h-10.725a1 1 0 0 1 0-2h10.725a1 1 0 0 1 0 2z" fill="#463049" data-original="#463049" class=""></path><path d="m88.59 95.653h-10.725a1 1 0 0 1 -1-1v-19.731a6.132 6.132 0 0 1 6.125-6.122h.475a6.132 6.132 0 0 1 6.125 6.125v19.728a1 1 0 0 1 -1 1zm-9.725-2h8.725v-18.731a4.13 4.13 0 0 0 -4.125-4.122h-.475a4.129 4.129 0 0 0 -4.125 4.125z" fill="#463049" data-original="#463049" class=""></path><path d="m83.228 95.653a1 1 0 0 1 -1-1v-24.853a1 1 0 0 1 2 0v24.853a1 1 0 0 1 -1 1z" fill="#463049" data-original="#463049" class=""></path><path d="m88.59 83.226h-10.725a1 1 0 0 1 0-2h10.725a1 1 0 0 1 0 2z" fill="#463049" data-original="#463049" class=""></path><path d="m110.657 109.568h-2.067a2.962 2.962 0 0 0 .184-1v-5.678a3 3 0 0 0 -2.381-2.934l-.993-35.112h.372a3 3 0 0 0 3-3v-5.679a2.991 2.991 0 0 0 -.872-2.111 2 2 0 0 0 .171-.355 2.033 2.033 0 0 0 -.85-2.3l-40.97-26.552a4.2 4.2 0 0 0 -4.5 0l-40.974 26.553a2.033 2.033 0 0 0 -.85 2.3 2 2 0 0 0 .171.355 2.991 2.991 0 0 0 -.872 2.111v5.679a3 3 0 0 0 3 3h.374l-.991 35.112a3 3 0 0 0 -2.381 2.934v5.678a2.962 2.962 0 0 0 .184 1h-2.069a3 3 0 0 0 -3 3v4.931a3 3 0 0 0 3 3h93.314a3 3 0 0 0 3-3v-4.932a3 3 0 0 0 -3-3zm-5.238-7.678h.355a1 1 0 0 1 1 1v5.678a1 1 0 0 1 -1 1h-13.527a1 1 0 0 1 -1-1v-5.678a1 1 0 0 1 1-1zm-15.988 7.678h-50.862a2.962 2.962 0 0 0 .184-1v-3.982h50.494v3.982a2.962 2.962 0 0 0 .184 1zm-.153-6.982h-50.552a3 3 0 0 0 -2.353-2.63l-.992-35.112h.372a3 3 0 0 0 2.947-2.517h50.6a3 3 0 0 0 2.951 2.517h.372l-.992 35.112a3 3 0 0 0 -2.353 2.63zm-.031-46.421v4.162h-50.494v-4.162a2.966 2.966 0 0 0 -.184-1h50.862a2.966 2.966 0 0 0 -.184 1zm4.383 43.725.99-35.046h1.461v35.046zm4.451 0v-35.046h2.135v35.046zm4.135 0v-35.046h1.184l.99 35.046zm4.558-38.046a1 1 0 0 1 -1 1h-13.527a1 1 0 0 1 -1-1v-5.679a1 1 0 0 1 1-1h13.527a1 1 0 0 1 1 1zm-84.909-8.765 40.971-26.555a2.18 2.18 0 0 1 2.328 0l40.946 26.641-84.268-.065a.1.1 0 0 1 .023-.021zm.361 9.765a1 1 0 0 1 -1-1v-5.679a1 1 0 0 1 1-1h13.527a1 1 0 0 1 1 1v5.679a1 1 0 0 1 -1 1zm12.144 37.046h-2.276v-35.046h1.286zm-4.276-35.046v35.046h-2.136v-35.046zm-4.136 0v35.046h-2.349l.99-35.046zm-4.732 38.046a1 1 0 0 1 1-1h13.527a1 1 0 0 1 1 1v5.678a1 1 0 0 1 -1 1h-13.527a1 1 0 0 1 -1-1zm90.431 14.61a1 1 0 0 1 -1 1h-93.314a1 1 0 0 1 -1-1v-4.932a1 1 0 0 1 1-1h93.314a1 1 0 0 1 1 1z" fill="#463049" data-original="#463049" class=""></path></g></g></svg>