<svg xmlns="http://www.w3.org/2000/svg" version="1.1" xmlns:xlink="http://www.w3.org/1999/xlink" xmlns:svgjs="http://svgjs.com/svgjs" width="512" height="512" x="0" y="0" viewBox="0 0 128 128" style="enable-background:new 0 0 512 512" xml:space="preserve" class=""><g><path xmlns="http://www.w3.org/2000/svg" d="m76.656 51.472a1.975 1.975 0 0 0 1.661.567l6.551-.839a1.59 1.59 0 0 0 .922-2.7l-.669-.667 2.992-2.987a2 2 0 0 0 0-2.83l-1.977-1.976a2 2 0 0 0 -2.819-.01l-3.017 2.98-.668-.67a1.589 1.589 0 0 0 -2.7.92l-.84 6.552a1.976 1.976 0 0 0 .567 1.66z" fill="#dbdbdb" data-original="#e7eadf" class=""></path><path xmlns="http://www.w3.org/2000/svg" d="m48.82 79.309a1.975 1.975 0 0 0 -1.661-.567l-6.551.839a1.591 1.591 0 0 0 -.921 2.7l.67.667-2.98 3.02a2 2 0 0 0 .009 2.819l1.977 1.977a2 2 0 0 0 2.83 0l2.986-2.992.667.669a1.59 1.59 0 0 0 2.7-.922l.84-6.552a1.976 1.976 0 0 0 -.567-1.66z" fill="#dbdbdb" data-original="#e7eadf" class=""></path><path xmlns="http://www.w3.org/2000/svg" d="m15.553 24.265c-.328.689-.622 1.339-.872 1.97a1.8 1.8 0 0 1 -2.515.976l-6.209-3.286a1.774 1.774 0 0 1 -.871-2.125c1.052-3.312 7.443-13.917 10.583-17.27a1.6 1.6 0 0 1 1.942-.081l5.872 4.066a1.78 1.78 0 0 1 .462 2.711c-.274.32-.588.7-.935 1.14a75.721 75.721 0 0 0 -7.457 11.899z" fill="#3d467c" data-original="#4e3d7c" class=""></path><path xmlns="http://www.w3.org/2000/svg" d="m111.66 104.054c.328-.69.622-1.339.872-1.97a1.8 1.8 0 0 1 2.515-.977l6.209 3.287a1.774 1.774 0 0 1 .872 2.12c-1.053 3.313-7.444 13.917-10.584 17.27a1.6 1.6 0 0 1 -1.942.082l-5.872-4.066a1.781 1.781 0 0 1 -.462-2.712c.274-.32.588-.7.936-1.139a75.721 75.721 0 0 0 7.456-11.895z" fill="#3d467c" data-original="#4e3d7c" class=""></path><path xmlns="http://www.w3.org/2000/svg" d="m102.4 93.732c1.95 2.04 5.72 6.33 9.92 8.86-.2.47-.42.95-.66 1.46a76.154 76.154 0 0 1 -7.46 11.9c-.2.25-.39.48-.56.69a38.5 38.5 0 0 0 -13.66-4.01c-4.42-.54-12.24-.73-17.25-3.82-.27-.16-.52-.33-.78-.5a22.167 22.167 0 0 1 -6.47-6.66c-2.73-4.41-3.36-9.03-2.02-11.44a13.344 13.344 0 0 1 -.33-7.49c.81-1.99 3.07-2.48 4.16-1.12a2.344 2.344 0 0 1 .48.96c1.3 4.7 4.8 10.51 8.31 12.61 4.75 2.83 8.81-1.28 9.23-4.14.37-2.56-1.54-8.02-2.53-11.88-.18-.73-.33-1.4-.44-1.98-.72-4.1 3.71-7.39 5.33-3.3a43.7 43.7 0 0 0 4.22 7.43 124.714 124.714 0 0 0 10.51 12.43z" fill="#dddddd" data-original="#ff977b" class=""></path><path xmlns="http://www.w3.org/2000/svg" d="m63.75 38.107a13.344 13.344 0 0 1 .33 7.49c-.81 1.99-3.07 2.48-4.16 1.12a2.344 2.344 0 0 1 -.48-.96c-1.3-4.7-4.8-10.51-8.31-12.61-4.75-2.83-8.81 1.28-9.23 4.14-.37 2.56 1.54 8.02 2.53 11.88.18.73.33 1.4.44 1.98.72 4.1-3.71 7.39-5.33 3.3a43.7 43.7 0 0 0 -4.22-7.43 124.714 124.714 0 0 0 -10.51-12.43c-1.95-2.04-5.72-6.33-9.92-8.86.2-.47.42-.95.66-1.46a76.154 76.154 0 0 1 7.46-11.9c.2-.25.39-.48.56-.69a38.5 38.5 0 0 0 13.66 4.01c4.42.54 12.24.73 17.25 3.82.27.16.52.33.78.5a22.167 22.167 0 0 1 6.47 6.66c2.73 4.41 3.36 9.033 2.02 11.44z" fill="#dddddd" data-original="#ff977b" class=""></path><g xmlns="http://www.w3.org/2000/svg" fill="#463049"><path d="m89.7 43.431a2.982 2.982 0 0 0 -.879-2.123l-1.977-1.977a2.981 2.981 0 0 0 -2.121-.878 2.982 2.982 0 0 0 -2.108.865l-2.315 2.282a2.569 2.569 0 0 0 -1.8-.727 2.6 2.6 0 0 0 -2.572 2.261l-.84 6.552a2.992 2.992 0 0 0 2.964 3.371 2.931 2.931 0 0 0 .383-.025l6.565-.84a2.59 2.59 0 0 0 1.541-4.36l2.283-2.279a2.978 2.978 0 0 0 .876-2.122zm-2.294.706-3.283 3.278a.591.591 0 0 0 0 .835l.959.955a.59.59 0 0 1 -.341 1l-6.551.84a1.145 1.145 0 0 1 -.129.008.991.991 0 0 1 -.98-1.117l.839-6.551a.59.59 0 0 1 .589-.516.577.577 0 0 1 .414.174l.956.959a.59.59 0 0 0 .835 0l3.307-3.264a1 1 0 0 1 1.409.005l1.977 1.977a1 1 0 0 1 -.001 1.417z" fill="#463049" data-original="#463049" class=""></path><path d="m47.415 77.725a2.931 2.931 0 0 0 -.383.025l-6.551.839a2.59 2.59 0 0 0 -1.534 4.368l-2.282 2.311a3.007 3.007 0 0 0 .014 4.229l1.977 1.977a3 3 0 0 0 4.244 0l2.279-2.283a2.567 2.567 0 0 0 1.788.72 2.6 2.6 0 0 0 2.572-2.261l.84-6.552a2.992 2.992 0 0 0 -2.964-3.371zm.14 9.669a.588.588 0 0 1 -.588.515.577.577 0 0 1 -.414-.174l-.956-.959a.59.59 0 0 0 -.835 0l-3.277 3.283a1 1 0 0 1 -1.415 0l-1.977-1.977a1 1 0 0 1 -.005-1.41l3.264-3.306a.591.591 0 0 0 0-.836l-.959-.955a.59.59 0 0 1 .342-1l6.551-.839a.932.932 0 0 1 .129-.009.991.991 0 0 1 .98 1.117z" fill="#463049" data-original="#463049" class=""></path><path d="m64.81 38.206c1.338-2.929.476-7.7-2.231-12.069a23.137 23.137 0 0 0 -6.77-6.966c-.2-.132-.59-.389-.8-.515-4.33-2.671-10.539-3.263-15.072-3.7-.943-.089-1.815-.172-2.581-.266a40.281 40.281 0 0 1 -12.286-3.365 2.745 2.745 0 0 0 .275-1.722 2.716 2.716 0 0 0 -1.293-1.913l-5.934-4.09a2.539 2.539 0 0 0 -3.178.258c-3.325 3.542-9.746 14.301-10.8 17.636a2.757 2.757 0 0 0 1.353 3.317l6.207 3.278a2.707 2.707 0 0 0 2.226.16 2.865 2.865 0 0 0 1.368-1.064 50.178 50.178 0 0 1 7.991 7.243c.293.312.561.6.807.855a124.243 124.243 0 0 1 10.437 12.345 42.88 42.88 0 0 1 4.081 7.187c.735 1.853 1.982 2.5 3.122 2.5a3.091 3.091 0 0 0 .839-.117c2.014-.569 3.815-3.208 3.282-6.243-.114-.6-.993-4.021-1.3-5.089-.9-3.146-1.915-6.712-1.666-8.438a5.6 5.6 0 0 1 3.044-3.781 4.77 4.77 0 0 1 4.685.353c3 1.793 6.523 7.185 7.854 12a3.333 3.333 0 0 0 .67 1.343 3.067 3.067 0 0 0 2.868 1.108 3.938 3.938 0 0 0 3-2.474 14.078 14.078 0 0 0 -.198-7.771zm-51.566-11.837a.731.731 0 0 1 -.607-.047l-6.216-3.282a.78.78 0 0 1 -.378-.932c.984-3.108 6.941-13.863 10.357-16.893.2-.18.5-.022.638.064 1.527.963 5.942 4.106 5.942 4.106a.774.774 0 0 1 .2 1.191c-.108.125-.962 1.177-.962 1.177a77.042 77.042 0 0 0 -7.574 12.088c-.247.522-.893 2.019-.893 2.019a.886.886 0 0 1 -.507.509zm49.91 18.85a1.925 1.925 0 0 1 -1.434 1.252 1.083 1.083 0 0 1 -1.034-.4 1.4 1.4 0 0 1 -.282-.584c-1.28-4.624-4.785-10.823-8.762-13.2a6.8 6.8 0 0 0 -6.568-.443 7.562 7.562 0 0 0 -4.163 5.3c-.311 2.151.722 5.773 1.722 9.275.3 1.049 1.147 4.351 1.252 4.9.356 2.027-.842 3.671-1.858 3.958-.648.182-1.17-.221-1.557-1.2a44.825 44.825 0 0 0 -4.361-7.677 125.626 125.626 0 0 0 -10.577-12.5c-.236-.248-.5-.529-.789-.837a50.79 50.79 0 0 0 -8.59-7.7c.1-.219.19-.43.3-.656a74.755 74.755 0 0 1 7.34-11.71l.041-.051a40.989 40.989 0 0 0 13.278 3.738c.784.1 1.673.181 2.634.273 4.338.413 10.279.98 14.228 3.415.2.119.733.471.733.471a21.254 21.254 0 0 1 6.176 6.355 16.268 16.268 0 0 1 2.478 6.879 20.919 20.919 0 0 0 -10.79-11.461 1 1 0 0 0 -.832 1.819c6.945 3.178 9.554 9.1 11.047 13.926 0 .01 0 .02.008.031v.01a12.5 12.5 0 0 1 .36 6.817z" fill="#463049" data-original="#463049" class=""></path><path d="m121.72 103.507-6.207-3.278a2.71 2.71 0 0 0 -2.226-.16 2.861 2.861 0 0 0 -1.368 1.065c-3.213-2.167-8.551-7.841-8.8-8.1a124.237 124.237 0 0 1 -10.434-12.344 42.908 42.908 0 0 1 -4.085-7.19c-.921-2.325-2.652-2.759-3.961-2.386-2.014.569-3.815 3.207-3.282 6.242.114.595.992 4.018 1.3 5.084.9 3.148 1.918 6.716 1.668 8.443a5.6 5.6 0 0 1 -3.044 3.781 4.767 4.767 0 0 1 -4.683-.353c-3-1.793-6.523-7.185-7.854-12a3.351 3.351 0 0 0 -.67-1.341 3.066 3.066 0 0 0 -2.868-1.108 3.937 3.937 0 0 0 -3 2.476 14.081 14.081 0 0 0 .2 7.768c-1.338 2.929-.476 7.7 2.232 12.069a23.285 23.285 0 0 0 6.769 6.966l.153.1c.219.145.437.288.651.415 4.329 2.67 10.538 3.262 15.072 3.7.943.09 1.814.173 2.581.267a40.311 40.311 0 0 1 12.286 3.364 2.751 2.751 0 0 0 -.276 1.721 2.72 2.72 0 0 0 1.293 1.914l5.931 4.1a3 3 0 0 0 1.518.432 2.221 2.221 0 0 0 1.659-.689c3.325-3.547 9.746-14.3 10.8-17.641a2.753 2.753 0 0 0 -1.355-3.317zm-31.62 8.132c-.783-.1-1.672-.181-2.633-.272-4.339-.414-10.281-.981-14.229-3.417-.2-.118-.391-.244-.583-.37l-.15-.1a21.238 21.238 0 0 1 -6.175-6.355 16.256 16.256 0 0 1 -2.479-6.876 20.9 20.9 0 0 0 10.786 11.451.988.988 0 0 0 .415.091 1 1 0 0 0 .417-1.91c-6.973-3.193-9.569-9.139-11.05-13.964a12.5 12.5 0 0 1 -.359-6.817 1.929 1.929 0 0 1 1.434-1.252 1.081 1.081 0 0 1 1.034.4 1.4 1.4 0 0 1 .283.583c1.279 4.624 4.783 10.823 8.761 13.2a6.8 6.8 0 0 0 6.568.443 7.564 7.564 0 0 0 4.164-5.3c.311-2.153-.723-5.777-1.724-9.281-.3-1.048-1.146-4.344-1.251-4.9-.356-2.026.842-3.671 1.858-3.958.644-.183 1.169.221 1.557 1.2a45.119 45.119 0 0 0 4.356 7.681 130.165 130.165 0 0 0 10.577 12.507c.238.247 5.875 6.237 9.379 8.537-.1.219-.19.43-.3.657a75.381 75.381 0 0 1 -7.381 11.76 41.014 41.014 0 0 0 -13.275-3.738zm31.066-5.429c-.984 3.113-7.058 13.544-10.27 16.794a.652.652 0 0 1 -.728.036l-5.943-4.106a.706.706 0 0 1 -.385-.551c0-.387.825-1.389 1.149-1.818a81.025 81.025 0 0 0 7.574-12.087c.246-.522.893-2.02.893-2.02a.886.886 0 0 1 .509-.509.831.831 0 0 1 .607.047c1.552.825 6.216 3.283 6.216 3.283a.778.778 0 0 1 .382.931z" fill="#463049" data-original="#463049" class=""></path></g><path xmlns="http://www.w3.org/2000/svg" d="m80.726 67.746 2.44 2.1a2.235 2.235 0 0 1 .238 3.151l-6.744 7.843a2.236 2.236 0 0 1 -3.151.238l-2.438-2.1a2.973 2.973 0 1 1 -3.224-2.769l-3-2.576a2.211 2.211 0 0 1 -.271-3.114l2.051-2.384a3 3 0 0 1 -2.116-.726 2.907 2.907 0 1 1 3.789-4.409 3 3 0 0 1 1.036 1.982l2.05-2.382a2.21 2.21 0 0 1 3.119-.2l3 2.577a2.966 2.966 0 1 0 3.223 2.769z" fill="#0d6efd" data-original="#4a67ce" class=""></path><path xmlns="http://www.w3.org/2000/svg" d="m68.1 83.144a3.976 3.976 0 0 1 -2.193-7.282l-1.707-1.468a3.216 3.216 0 0 1 -.378-4.524l.953-1.108a4.136 4.136 0 0 1 -.911-.592 3.945 3.945 0 0 1 -.466-5.552 3.849 3.849 0 0 1 2.694-1.337 4.006 4.006 0 0 1 2.864.964 4.051 4.051 0 0 1 .722.812l.952-1.108a3.213 3.213 0 0 1 4.529-.307l3 2.576a1 1 0 0 1 -.567 1.755 1.972 1.972 0 1 0 1.657 3.255 2.009 2.009 0 0 0 .485-1.42 1 1 0 0 1 1.649-.82l2.439 2.095a3.239 3.239 0 0 1 .346 4.561l-6.744 7.847a3.24 3.24 0 0 1 -4.562.345l-1.15-.989a3.986 3.986 0 0 1 -3.3 2.285c-.112.008-.212.012-.312.012zm-1.47-16.007a1 1 0 0 1 .758 1.652l-2.051 2.384a1.212 1.212 0 0 0 .165 1.7l3 2.576a1 1 0 0 1 -.564 1.755 1.972 1.972 0 1 0 2.137 1.838 1 1 0 0 1 1.651-.823l2.438 2.1a1.234 1.234 0 0 0 1.74-.131l6.745-7.847a1.237 1.237 0 0 0 -.132-1.741l-1.158-.994a3.971 3.971 0 1 1 -5.8-4.981l-1.706-1.467a1.215 1.215 0 0 0 -1.71.094l-2.043 2.385a1 1 0 0 1 -1.754-.554 1.993 1.993 0 0 0 -.693-1.321 1.958 1.958 0 0 0 -1.432-.485 1.859 1.859 0 0 0 -1.3.645 1.943 1.943 0 0 0 .253 2.731 1.987 1.987 0 0 0 1.41.486z" fill="#463049" data-original="#463049" class=""></path><path xmlns="http://www.w3.org/2000/svg" d="m57.114 59.063a2.94 2.94 0 0 1 4.123.528 2.992 2.992 0 0 1 .639 2.143l2.467-1.95a2.21 2.21 0 0 0 .327-3.108l-2.453-3.1a3.018 3.018 0 1 0 -2.679-3.5l-2.356-3.176a2.211 2.211 0 0 0 -3.086-.492l-2.524 1.876a2.991 2.991 0 0 1 1.9 1.174 2.951 2.951 0 0 1 -4.685 3.59 2.992 2.992 0 0 1 -.639-2.143l-2.467 1.95a2.21 2.21 0 0 0 -.328 3.108l2.454 3.1a3.018 3.018 0 1 0 2.679 3.5l2.356 3.175a2.21 2.21 0 0 0 3.086.493l2.524-1.876a2.991 2.991 0 0 1 -1.9-1.174 2.94 2.94 0 0 1 .562-4.118z" fill="#85b3ff" data-original="#f74d66" class=""></path><path xmlns="http://www.w3.org/2000/svg" d="m54.653 67.654a3.141 3.141 0 0 1 -.51-.041 3.234 3.234 0 0 1 -2.1-1.279l-1.343-1.81a4.017 4.017 0 1 1 -4.727-6.169l-1.4-1.768a3.237 3.237 0 0 1 -.688-2.361 3.139 3.139 0 0 1 1.179-2.151l2.468-1.95a1 1 0 0 1 1.614.875 2.02 2.02 0 0 0 1.742 2.176 1.861 1.861 0 0 0 1.4-.385 1.882 1.882 0 0 0 .761-1.274 2.02 2.02 0 0 0 -1.649-2.244 1 1 0 0 1 -.429-1.788l2.529-1.876a3.215 3.215 0 0 1 4.485.7l1.343 1.811a4 4 0 0 1 .777-.761 4.018 4.018 0 1 1 3.951 6.93l1.4 1.767a3.215 3.215 0 0 1 -.492 4.513l-2.464 1.95a1 1 0 0 1 -1.615-.88 1.992 1.992 0 0 0 -.428-1.427 1.943 1.943 0 0 0 -2.719-.365l-.023.019a1.942 1.942 0 0 0 -.356 2.719 1.991 1.991 0 0 0 1.267.784 1 1 0 0 1 .43 1.789l-2.525 1.875a3.13 3.13 0 0 1 -1.878.621zm-4.164-6.091a1 1 0 0 1 .8.405l2.355 3.175a1.254 1.254 0 0 0 .811.5 1.163 1.163 0 0 0 .877-.21l1.173-.872a4.123 4.123 0 0 1 -.759-.779 3.952 3.952 0 1 1 6.827-3.872l1.15-.91a1.213 1.213 0 0 0 .164-1.7l-2.454-3.1a1 1 0 0 1 .888-1.615 2.018 2.018 0 1 0 -1.8-2.345 1 1 0 0 1 -1.79.438l-2.351-3.178a1.213 1.213 0 0 0 -1.688-.285l-1.173.872a4.053 4.053 0 0 1 .758.778 3.977 3.977 0 0 1 .757 2.927 3.969 3.969 0 0 1 -4.4 3.372 4.037 4.037 0 0 1 -3.183-2.427l-1.147.907a1.159 1.159 0 0 0 -.432.792 1.252 1.252 0 0 0 .269.91l2.454 3.1a1 1 0 0 1 .092 1.1.989.989 0 0 1 -.981.513 2.017 2.017 0 1 0 1.8 2.344 1 1 0 0 1 .987-.843z" fill="#463049" data-original="#463049" class=""></path></g></svg>